<svg width="25" height="24" viewBox="0 0 25 24" fill="none" xmlns="http://www.w3.org/2000/svg">
<path d="M16.6451 9.365C16.6351 9.365 16.6201 9.365 16.6051 9.365C13.9601 9.1 11.3201 9 8.7051 9.265L7.6851 9.365C7.4751 9.385 7.2901 9.235 7.2701 9.025C7.2501 8.815 7.4001 8.635 7.6051 8.615L8.6251 8.515C11.2851 8.245 13.9801 8.35 16.6801 8.615C16.8851 8.635 17.0351 8.82 17.0151 9.025C17.0001 9.22 16.8351 9.365 16.6451 9.365Z" fill="#515151"/>
<path d="M10.3949 8.86C10.3749 8.86 10.3549 8.86 10.3299 8.855C10.1299 8.82 9.9899 8.625 10.0249 8.425L10.1349 7.77C10.2149 7.29 10.3249 6.625 11.4899 6.625H12.7999C13.9699 6.625 14.0799 7.315 14.1549 7.775L14.2649 8.425C14.2999 8.63 14.1599 8.825 13.9599 8.855C13.7549 8.89 13.5599 8.75 13.5299 8.55L13.4199 7.9C13.3499 7.465 13.3349 7.38 12.8049 7.38H11.4949C10.9649 7.38 10.9549 7.45 10.8799 7.895L10.7649 8.545C10.7349 8.73 10.5749 8.86 10.3949 8.86Z" fill="#515151"/>
<path d="M13.75 17.375H10.54C8.79497 17.375 8.72497 16.41 8.66997 15.63L8.34497 10.595C8.32997 10.39 8.48997 10.21 8.69497 10.195C8.90497 10.185 9.07997 10.34 9.09497 10.545L9.41997 15.58C9.47497 16.34 9.49497 16.625 10.54 16.625H13.75C14.8 16.625 14.82 16.34 14.87 15.58L15.195 10.545C15.21 10.34 15.39 10.185 15.595 10.195C15.8 10.21 15.96 10.385 15.945 10.595L15.62 15.63C15.565 16.41 15.495 17.375 13.75 17.375Z" fill="#515151"/>
<path d="M12.9751 14.625H11.3101C11.1051 14.625 10.9351 14.455 10.9351 14.25C10.9351 14.045 11.1051 13.875 11.3101 13.875H12.9751C13.1801 13.875 13.3501 14.045 13.3501 14.25C13.3501 14.455 13.1801 14.625 12.9751 14.625Z" fill="#515151"/>
<path d="M13.395 12.625H10.895C10.69 12.625 10.52 12.455 10.52 12.25C10.52 12.045 10.69 11.875 10.895 11.875H13.395C13.6 11.875 13.77 12.045 13.77 12.25C13.77 12.455 13.6 12.625 13.395 12.625Z" fill="#515151"/>
<rect x="0.645019" y="0.499999" width="23" height="23" rx="5.49999" stroke="#515151" stroke-width="0.999999"/>
</svg>
