<svg width="25" height="24" viewBox="0 0 25 24" fill="none" xmlns="http://www.w3.org/2000/svg">
<path d="M11.6991 15.185C11.6241 15.185 11.5541 15.165 11.4891 15.12C11.3841 15.05 11.3241 14.935 11.3241 14.81C11.3241 14.735 11.3191 14.655 11.3091 14.575C11.2641 14.22 11.1041 13.91 10.8341 13.64C10.5641 13.37 10.2291 13.2 9.86909 13.155C9.80909 13.15 9.72409 13.145 9.64409 13.15C9.51409 13.16 9.39409 13.105 9.31909 13C9.24409 12.9 9.22409 12.765 9.26409 12.645C9.33909 12.44 9.44909 12.255 9.57909 12.105L10.3491 11.135C11.6741 9.48001 14.3591 7.49001 16.3241 6.70001C16.7391 6.54001 17.1841 6.63501 17.4891 6.93501C17.8041 7.25001 17.8991 7.70001 17.7341 8.11001C16.9441 10.08 14.9591 12.76 13.3041 14.085L12.3191 14.875C12.1341 15.01 11.9841 15.095 11.8341 15.155C11.7941 15.175 11.7441 15.185 11.6991 15.185ZM10.2541 12.47C10.6741 12.58 11.0491 12.8 11.3641 13.115C11.6791 13.425 11.8891 13.785 11.9941 14.185L12.8391 13.505C14.4091 12.25 16.2941 9.70501 17.0391 7.83501C17.1141 7.65001 17.0091 7.52001 16.9591 7.47501C16.9241 7.44001 16.7941 7.33001 16.5941 7.40501C14.7341 8.15501 12.1891 10.04 10.9291 11.61L10.2541 12.47Z" fill="#515151"/>
<path d="M8.52406 17.375C8.14906 17.375 7.78906 17.225 7.51906 16.955C7.20906 16.645 7.05906 16.215 7.10906 15.775L7.24406 14.545C7.37406 13.325 8.37406 12.42 9.61406 12.395C9.70906 12.39 9.83406 12.395 9.94906 12.405C10.4941 12.475 10.9791 12.72 11.3691 13.11C11.7541 13.495 11.9841 13.955 12.0541 14.47C12.0691 14.58 12.0791 14.7 12.0791 14.805C12.0791 15.465 11.8241 16.08 11.3641 16.545C10.9791 16.925 10.4841 17.16 9.92406 17.23L8.68906 17.365C8.63406 17.37 8.57906 17.375 8.52406 17.375ZM9.70906 13.15C9.68906 13.15 9.66406 13.15 9.64406 13.15C8.88906 13.165 8.08906 13.68 7.98906 14.63L7.85406 15.86C7.82906 16.07 7.90406 16.275 8.04906 16.425C8.19406 16.57 8.39906 16.645 8.60406 16.62L9.83406 16.485C10.2191 16.435 10.5641 16.275 10.8241 16.015C11.1441 15.695 11.3241 15.265 11.3241 14.805C11.3241 14.73 11.3191 14.65 11.3091 14.57C11.2641 14.215 11.1041 13.905 10.8341 13.635C10.5641 13.365 10.2291 13.195 9.86906 13.15C9.82906 13.15 9.76906 13.15 9.70906 13.15Z" fill="#515151"/>
<path d="M13.604 13.61C13.399 13.61 13.229 13.44 13.229 13.235C13.229 12.135 12.334 11.245 11.239 11.245C11.034 11.245 10.864 11.075 10.864 10.87C10.864 10.665 11.029 10.495 11.234 10.495C12.744 10.495 13.974 11.725 13.974 13.235C13.979 13.445 13.809 13.61 13.604 13.61Z" fill="#515151"/>
<rect x="0.98413" y="0.499999" width="23" height="23" rx="5.49999" stroke="#515151" stroke-width="0.999999"/>
</svg>
